<svg width="300" height="300" viewBox="0 0 300 300" fill="none" xmlns="http://www.w3.org/2000/svg">
  <rect width="300" height="300" fill="white"/>
  <path d="M104.816 139.176H109.84C112.613 139.176 114.661 139.667 115.984 140.648C117.328 141.629 118 143.283 118 145.608C118 146.888 117.755 147.955 117.264 148.808C116.773 149.661 116.155 150.355 115.408 150.888C114.683 151.4 113.893 151.773 113.04 152.008C112.187 152.221 111.397 152.328 110.672 152.328H107.504V161H104.816V139.176ZM107.504 149.928H110.448C111.173 149.928 111.824 149.864 112.4 149.736C112.997 149.587 113.509 149.352 113.936 149.032C114.363 148.691 114.693 148.243 114.928 147.688C115.163 147.112 115.28 146.397 115.28 145.544C115.28 144.691 115.152 144.008 114.896 143.496C114.661 142.963 114.299 142.557 113.808 142.28C113.339 142.003 112.741 141.821 112.016 141.736C111.291 141.629 110.448 141.576 109.488 141.576H107.504V149.928ZM130.327 153.608C129.9 153.629 129.495 153.651 129.111 153.672C128.727 153.693 128.343 153.725 127.959 153.768C127.596 153.789 127.265 153.821 126.967 153.864C125.431 154.056 124.343 154.397 123.703 154.888C123.063 155.357 122.743 156.04 122.743 156.936C122.743 157.683 122.967 158.248 123.415 158.632C123.884 158.995 124.492 159.176 125.239 159.176C126.263 159.176 127.169 159.005 127.959 158.664C128.769 158.301 129.559 157.832 130.327 157.256V153.608ZM130.295 159.496C129.292 160.072 128.353 160.541 127.479 160.904C126.625 161.245 125.697 161.416 124.695 161.416C123.265 161.416 122.124 161.075 121.271 160.392C120.439 159.688 120.023 158.536 120.023 156.936C120.023 156.104 120.236 155.379 120.663 154.76C121.089 154.141 121.644 153.629 122.327 153.224C123.031 152.797 123.82 152.467 124.695 152.232C125.569 151.997 126.465 151.848 127.383 151.784C127.767 151.741 128.268 151.709 128.887 151.688C129.505 151.645 129.985 151.613 130.327 151.592C130.327 150.845 130.305 150.184 130.263 149.608C130.22 149.011 130.092 148.509 129.879 148.104C129.665 147.677 129.345 147.357 128.919 147.144C128.513 146.931 127.927 146.824 127.159 146.824C126.54 146.824 125.943 146.867 125.367 146.952C124.791 147.016 124.279 147.091 123.831 147.176C123.297 147.283 122.807 147.4 122.359 147.528L121.847 145.32C122.38 145.192 122.956 145.075 123.575 144.968C124.108 144.861 124.727 144.776 125.431 144.712C126.135 144.627 126.892 144.584 127.703 144.584C128.791 144.584 129.665 144.744 130.327 145.064C131.009 145.384 131.532 145.821 131.895 146.376C132.279 146.909 132.535 147.528 132.663 148.232C132.812 148.915 132.887 149.64 132.887 150.408V158.088C132.887 158.387 132.887 158.707 132.887 159.048C132.908 159.368 132.929 159.688 132.951 160.008C132.993 160.328 133.036 160.659 133.079 161L130.615 161.256L130.295 159.496ZM135.162 144.904H137.882L140.89 152.168C141.188 152.872 141.455 153.576 141.69 154.28C141.946 154.984 142.17 155.613 142.362 156.168C142.596 156.829 142.799 157.469 142.97 158.088H143.002C143.194 157.469 143.407 156.829 143.642 156.168C143.834 155.613 144.058 154.984 144.314 154.28C144.57 153.576 144.836 152.872 145.114 152.168L147.898 144.904H150.586L142.97 164.104C142.671 164.893 142.276 165.576 141.786 166.152C141.316 166.728 140.858 167.208 140.41 167.592C139.876 168.04 139.322 168.424 138.746 168.744L137.498 166.536C137.946 166.323 138.362 166.056 138.746 165.736C139.087 165.459 139.428 165.107 139.77 164.68C140.111 164.275 140.388 163.784 140.602 163.208L141.594 160.584L135.162 144.904ZM156.892 140.104V144.904H161.532V146.984H156.892V155.528C156.892 156.232 156.902 156.819 156.924 157.288C156.966 157.757 157.041 158.131 157.148 158.408C157.254 158.685 157.404 158.888 157.596 159.016C157.788 159.123 158.033 159.176 158.332 159.176C159.142 159.155 160.081 158.856 161.148 158.28L161.916 160.232C161.212 160.701 160.55 161.011 159.932 161.16C159.334 161.331 158.737 161.416 158.14 161.416C156.732 161.416 155.74 161.021 155.164 160.232C154.609 159.421 154.332 158.088 154.332 156.232V146.984H151.388V144.904H154.332V140.424L156.892 140.104ZM166.503 153.032C166.503 155.101 166.962 156.648 167.879 157.672C168.818 158.675 170.076 159.176 171.655 159.176C173.212 159.176 174.428 158.675 175.303 157.672C176.178 156.669 176.615 155.165 176.615 153.16C176.615 151.027 176.146 149.437 175.207 148.392C174.29 147.347 173.031 146.824 171.431 146.824C169.831 146.824 168.604 147.347 167.751 148.392C166.919 149.416 166.503 150.963 166.503 153.032ZM163.783 153C163.783 151.379 164.039 150.035 164.551 148.968C165.063 147.88 165.714 147.016 166.503 146.376C167.292 145.715 168.135 145.256 169.031 145C169.948 144.723 170.812 144.584 171.623 144.584C172.391 144.584 173.223 144.712 174.119 144.968C175.036 145.203 175.879 145.64 176.647 146.28C177.415 146.899 178.055 147.741 178.567 148.808C179.079 149.853 179.335 151.187 179.335 152.808C179.335 154.493 179.068 155.891 178.535 157C178.023 158.109 177.372 158.995 176.583 159.656C175.794 160.296 174.94 160.744 174.023 161C173.106 161.277 172.252 161.416 171.463 161.416C170.652 161.416 169.799 161.288 168.903 161.032C168.007 160.776 167.175 160.339 166.407 159.72C165.66 159.08 165.031 158.216 164.519 157.128C164.028 156.04 163.783 154.664 163.783 153ZM183.086 148.104C183.107 147.656 183.054 146.685 182.926 145.192L185.294 144.872L185.646 146.92C186.286 146.493 186.915 146.12 187.534 145.8C188.174 145.48 188.825 145.203 189.486 144.968C190.147 144.712 190.787 144.584 191.406 144.584C192.281 144.584 193.006 144.691 193.582 144.904C194.179 145.096 194.659 145.427 195.022 145.896C195.385 146.365 195.641 146.984 195.79 147.752C195.961 148.52 196.046 149.48 196.046 150.632V161H193.486V150.92C193.486 150.28 193.475 149.715 193.454 149.224C193.433 148.712 193.337 148.285 193.166 147.944C193.017 147.581 192.771 147.304 192.43 147.112C192.11 146.92 191.651 146.824 191.054 146.824C190.499 146.824 189.913 146.952 189.294 147.208C188.675 147.443 188.067 147.72 187.47 148.04C186.873 148.36 186.265 148.733 185.646 149.16V161H183.086V148.104Z" fill="black"/>
  <rect x="73.25" y="125.25" width="153.5" height="50.5" stroke="black" stroke-width="2.5"/>
</svg>
