<svg id="svg" version="1.1" xmlns="http://www.w3.org/2000/svg" xmlns:xlink="http://www.w3.org/1999/xlink" width="400" height="400" viewBox="0, 0, 400,400"><g id="svgg"><path id="path0" d="M142.860 72.970 C 140.894 73.381,139.305 74.576,138.291 76.406 L 137.576 77.697 137.576 91.394 L 137.576 105.091 138.148 106.182 C 140.857 111.348,147.753 111.286,150.507 106.070 L 151.152 104.848 151.152 91.273 C 151.152 77.745,151.150 77.693,150.618 76.699 C 149.042 73.753,146.034 72.308,142.860 72.970 M179.152 72.945 C 177.080 73.389,175.199 74.910,174.322 76.848 C 173.845 77.903,173.829 78.386,173.826 91.394 L 173.823 104.848 174.389 106.061 C 177.057 111.770,185.423 111.072,187.191 104.994 C 187.770 103.003,187.653 78.781,187.057 77.235 C 185.872 74.164,182.359 72.257,179.152 72.945 M218.182 72.945 C 216.110 73.389,214.229 74.910,213.352 76.848 C 212.875 77.903,212.859 78.386,212.856 91.394 L 212.853 104.848 213.420 106.061 C 216.084 111.756,224.457 111.058,226.221 104.994 C 226.800 103.003,226.683 78.781,226.087 77.235 C 224.902 74.164,221.389 72.257,218.182 72.945 M254.375 72.970 C 252.328 73.398,250.698 74.667,249.770 76.556 L 249.091 77.939 249.091 91.515 C 249.091 106.655,248.990 105.698,250.808 107.858 C 254.017 111.672,260.996 110.041,262.419 105.145 C 263.106 102.782,262.857 78.053,262.133 76.699 C 260.557 73.753,257.549 72.308,254.375 72.970 M149.697 126.942 C 138.369 128.298,130.460 134.900,127.555 145.426 L 126.911 147.758 126.837 198.061 C 126.760 250.303,126.787 251.951,127.774 255.516 C 130.192 264.249,137.397 271.000,146.299 272.873 C 148.364 273.308,248.173 273.393,251.565 272.963 C 263.004 271.513,271.741 262.508,272.961 250.909 C 273.299 247.703,273.299 151.857,272.962 149.085 C 271.632 138.148,264.273 129.902,253.576 127.360 C 251.904 126.963,152.853 126.564,149.697 126.942 M78.132 137.704 C 72.042 138.937,70.876 147.304,76.364 150.399 L 77.697 151.152 90.637 151.220 C 101.722 151.279,103.762 151.235,104.863 150.915 C 110.955 149.144,111.395 140.756,105.540 138.014 C 104.508 137.531,80.339 137.257,78.132 137.704 M295.405 137.722 C 289.817 139.066,288.441 147.010,293.266 150.070 C 295.174 151.280,295.358 151.293,309.268 151.220 L 322.303 151.152 323.636 150.399 C 328.577 147.613,328.327 140.692,323.193 138.139 L 322.061 137.576 309.212 137.534 C 301.761 137.509,295.961 137.588,295.405 137.722 M253.176 141.782 C 256.331 143.336,258.574 146.361,259.135 149.823 C 259.487 151.990,259.491 247.978,259.139 250.182 C 258.611 253.494,256.412 256.624,253.618 258.039 C 250.776 259.479,253.822 259.407,199.220 259.337 L 149.212 259.273 147.758 258.692 C 143.946 257.169,141.399 254.019,140.837 250.135 C 140.433 247.343,140.553 151.201,140.962 149.268 C 141.805 145.290,144.882 141.979,148.544 141.110 C 149.064 140.987,171.339 140.911,200.490 140.932 L 251.525 140.970 253.176 141.782 M77.184 174.210 C 71.578 176.199,71.346 184.266,76.818 186.962 L 77.939 187.515 91.152 187.515 L 104.364 187.515 105.631 186.942 C 111.222 184.414,110.983 176.144,105.262 174.195 C 103.667 173.651,78.722 173.665,77.184 174.210 M294.624 174.215 C 289.173 176.147,288.801 184.155,294.042 186.735 L 295.626 187.515 308.843 187.515 L 322.061 187.515 323.193 186.952 C 328.683 184.222,328.389 176.128,322.731 174.200 C 321.111 173.648,296.187 173.661,294.624 174.215 M77.184 213.241 C 71.578 215.229,71.346 223.297,76.818 225.993 L 77.939 226.545 91.273 226.545 L 104.606 226.545 105.732 225.985 C 111.222 223.254,110.924 215.155,105.262 213.225 C 103.667 212.682,78.722 212.695,77.184 213.241 M294.624 213.245 C 289.173 215.177,288.801 223.185,294.042 225.765 L 295.626 226.545 308.843 226.545 L 322.061 226.545 323.193 225.982 C 328.683 223.252,328.389 215.158,322.731 213.230 C 321.111 212.678,296.187 212.692,294.624 213.245 M78.132 249.219 C 71.575 250.547,70.950 260.253,77.284 262.411 C 78.939 262.975,103.607 262.975,105.262 262.411 C 110.885 260.495,111.194 252.366,105.747 249.658 L 104.606 249.091 91.879 249.052 C 84.879 249.030,78.693 249.106,78.132 249.219 M295.405 249.237 C 288.748 250.838,288.643 260.708,295.264 262.547 C 296.838 262.984,321.405 262.858,322.731 262.406 C 328.389 260.478,328.683 252.384,323.193 249.654 L 322.061 249.091 309.212 249.049 C 301.761 249.024,295.961 249.103,295.405 249.237 M141.455 291.238 C 137.575 293.053,137.576 293.051,137.576 309.091 L 137.576 322.545 138.148 323.636 C 140.874 328.834,147.815 328.782,150.618 323.543 C 151.229 322.401,151.598 297.624,151.035 295.533 C 149.981 291.619,145.211 289.481,141.455 291.238 M177.818 291.119 C 176.449 291.744,175.370 292.718,174.601 294.026 L 173.939 295.152 173.871 308.688 L 173.803 322.225 174.378 323.476 C 176.913 328.988,184.863 328.694,187.057 323.007 C 187.763 321.177,187.763 296.763,187.057 294.932 C 185.703 291.422,181.216 289.570,177.818 291.119 M216.848 291.119 C 215.479 291.744,214.400 292.718,213.632 294.026 L 212.970 295.152 212.901 308.688 L 212.833 322.225 213.408 323.476 C 215.943 328.988,223.893 328.694,226.087 323.007 C 226.793 321.177,226.793 296.763,226.087 294.932 C 224.733 291.422,220.247 289.570,216.848 291.119 M252.970 291.238 C 251.505 291.923,250.366 293.048,249.635 294.532 C 248.787 296.254,248.778 321.960,249.625 323.543 C 252.458 328.839,259.300 328.839,262.133 323.543 C 262.744 322.401,263.113 297.624,262.550 295.533 C 261.496 291.619,256.726 289.481,252.970 291.238 " stroke="none" fill="#fbfafa" fill-rule="evenodd"></path><path id="path1" d="M30.667 0.364 C 15.803 2.730,4.245 13.637,0.660 28.680 L 0.129 30.909 0.054 198.788 C 0.000 320.880,0.053 367.196,0.249 368.606 C 2.428 384.303,14.308 396.724,29.800 399.503 L 32.570 400.000 200.000 400.000 L 367.430 400.000 370.200 399.503 C 385.670 396.728,397.579 384.277,399.751 368.606 C 399.946 367.197,400.000 320.729,399.946 198.788 L 399.871 30.909 399.340 28.680 C 395.725 13.510,384.131 2.650,369.091 0.343 C 365.975 -0.134,33.671 -0.114,30.667 0.364 M147.092 73.206 C 148.868 74.012,149.773 74.878,150.604 76.568 L 151.394 78.172 151.394 91.389 C 151.394 104.501,151.390 104.615,150.860 105.750 C 148.129 111.605,140.575 111.637,137.886 105.805 L 137.333 104.606 137.333 91.394 L 137.333 78.182 137.962 76.848 C 139.606 73.362,143.773 71.700,147.092 73.206 M183.080 73.104 C 184.562 73.609,186.058 74.934,186.858 76.451 L 187.515 77.697 187.590 90.788 C 187.671 105.068,187.677 104.992,186.273 107.068 C 183.279 111.493,176.886 111.083,174.342 106.303 L 173.697 105.091 173.697 91.394 C 173.697 77.741,173.699 77.694,174.231 76.699 C 176.012 73.369,179.591 71.915,183.080 73.104 M222.110 73.104 C 223.593 73.609,225.088 74.934,225.888 76.451 L 226.545 77.697 226.620 90.788 C 226.701 105.068,226.707 104.992,225.303 107.068 C 222.309 111.493,215.916 111.083,213.372 106.303 L 212.727 105.091 212.727 91.394 C 212.727 77.741,212.729 77.694,213.261 76.699 C 215.043 73.369,218.621 71.915,222.110 73.104 M258.608 73.206 C 260.317 73.982,261.328 74.916,262.139 76.467 L 262.909 77.939 262.909 91.273 C 262.909 104.426,262.902 104.621,262.385 105.740 C 259.684 111.585,252.084 111.623,249.401 105.805 L 248.848 104.606 248.848 91.394 L 248.848 78.182 249.477 76.848 C 251.121 73.362,255.289 71.700,258.608 73.206 M254.609 127.468 C 264.323 130.281,271.006 137.514,272.844 147.206 C 273.402 150.147,273.400 249.768,272.842 252.968 C 271.101 262.952,262.838 271.170,252.743 272.957 C 251.769 273.130,235.212 273.212,201.450 273.212 C 174.030 273.212,151.514 273.294,151.414 273.394 C 151.130 273.678,148.445 273.461,146.182 272.971 C 137.123 271.008,129.946 264.127,127.470 255.030 L 126.909 252.970 126.909 200.121 L 126.909 147.273 127.472 145.212 C 130.033 135.829,138.225 128.408,147.515 127.055 C 148.317 126.938,172.262 126.861,200.848 126.883 L 252.727 126.923 254.609 127.468 M105.514 137.937 C 111.172 140.054,111.287 148.056,105.697 150.751 L 104.364 151.394 91.907 151.465 C 77.941 151.545,77.605 151.515,75.550 150.044 C 71.179 146.914,72.014 139.886,76.987 137.944 C 78.867 137.210,103.555 137.204,105.514 137.937 M322.968 137.937 C 328.594 140.042,328.715 148.080,323.162 150.846 L 322.061 151.394 308.848 151.394 L 295.636 151.394 294.372 150.822 C 289.907 148.803,288.707 142.661,292.161 139.503 C 294.477 137.384,293.723 137.477,308.658 137.465 C 321.079 137.455,321.738 137.477,322.968 137.937 M148.606 141.288 C 144.931 142.249,142.170 145.014,141.178 148.727 C 140.657 150.678,140.697 249.257,141.220 251.264 C 142.193 254.998,145.003 257.827,148.727 258.822 C 150.678 259.343,249.257 259.303,251.264 258.780 C 255.058 257.792,257.795 255.045,258.789 251.229 C 259.234 249.520,259.336 151.032,258.894 149.118 C 257.999 145.235,254.906 142.083,251.153 141.229 C 248.491 140.624,150.933 140.680,148.606 141.288 M105.537 174.118 C 110.994 176.586,111.347 183.916,106.148 186.796 L 104.848 187.515 91.662 187.584 C 76.771 187.661,76.946 187.679,74.968 185.856 C 70.860 182.070,72.605 175.133,77.992 173.835 C 79.846 173.389,104.483 173.641,105.537 174.118 M323.252 174.247 C 327.684 176.291,328.687 182.431,325.132 185.757 C 323.061 187.694,323.352 187.662,308.338 187.584 L 295.152 187.515 293.906 186.858 C 288.498 184.006,289.106 176.035,294.886 174.014 C 297.015 173.269,321.569 173.470,323.252 174.247 M105.537 213.148 C 111.283 215.747,111.160 224.280,105.349 226.260 C 103.366 226.936,78.864 226.870,77.032 226.184 C 70.831 223.864,71.512 214.427,77.992 212.866 C 79.846 212.419,104.483 212.672,105.537 213.148 M323.252 213.277 C 327.684 215.321,328.687 221.461,325.132 224.787 C 323.061 226.724,323.352 226.692,308.338 226.614 L 295.152 226.545 293.906 225.888 C 288.498 223.036,289.106 215.066,294.886 213.044 C 297.015 212.299,321.569 212.501,323.252 213.277 M105.556 249.468 C 111.224 251.589,111.211 259.922,105.537 262.488 C 104.114 263.132,78.431 263.132,77.009 262.488 C 71.305 259.909,71.291 251.683,76.987 249.459 C 78.899 248.712,103.558 248.721,105.556 249.468 M322.968 249.452 C 328.680 251.589,328.695 259.909,322.991 262.488 C 321.581 263.126,297.633 263.270,295.333 262.654 C 290.199 261.281,288.351 254.501,292.161 251.018 C 294.477 248.899,293.723 248.993,308.658 248.980 C 321.079 248.970,321.738 248.992,322.968 249.452 M146.743 290.810 C 148.291 291.337,150.104 293.025,150.816 294.599 L 151.394 295.879 151.394 308.848 C 151.394 323.503,151.433 323.170,149.487 325.280 C 145.940 329.128,140.125 328.115,137.886 323.259 L 137.333 322.061 137.333 308.970 L 137.333 295.879 137.891 294.667 C 139.443 291.295,143.271 289.627,146.743 290.810 M183.665 291.102 C 185.173 291.875,186.009 292.675,186.799 294.101 L 187.515 295.394 187.515 308.970 L 187.515 322.545 186.796 323.844 C 183.998 328.895,177.050 328.846,174.342 323.758 L 173.697 322.545 173.697 309.091 L 173.697 295.636 174.376 294.253 C 175.994 290.958,180.441 289.449,183.665 291.102 M222.695 291.102 C 224.203 291.875,225.039 292.675,225.829 294.101 L 226.545 295.394 226.545 308.970 L 226.545 322.545 225.826 323.844 C 223.029 328.895,216.080 328.846,213.372 323.758 L 212.727 322.545 212.727 309.091 L 212.727 295.636 213.407 294.253 C 215.025 290.958,219.472 289.449,222.695 291.102 M258.246 290.806 C 259.718 291.308,261.438 292.847,262.254 294.394 L 262.909 295.636 262.909 308.727 C 262.909 323.518,262.949 323.168,261.002 325.280 C 257.455 329.128,251.640 328.115,249.401 323.259 L 248.848 322.061 248.848 308.970 C 248.848 296.171,248.860 295.854,249.359 294.776 C 250.963 291.308,254.753 289.616,258.246 290.806 " stroke="none" fill="#de4c4f" fill-rule="evenodd"></path><path id="path2" d="M85.152 151.454 C 88.452 151.492,93.852 151.492,97.152 151.454 C 100.452 151.416,97.752 151.385,91.152 151.385 C 84.552 151.385,81.852 151.416,85.152 151.454 M302.848 151.454 C 306.148 151.492,311.548 151.492,314.848 151.454 C 318.148 151.416,315.448 151.385,308.848 151.385 C 302.248 151.385,299.548 151.416,302.848 151.454 M85.256 173.757 C 88.480 173.795,93.825 173.796,97.135 173.757 C 100.444 173.719,97.806 173.688,91.273 173.688 C 84.739 173.688,82.032 173.719,85.256 173.757 M302.502 173.757 C 305.878 173.795,311.332 173.795,314.623 173.757 C 317.914 173.719,315.152 173.688,308.485 173.688 C 301.818 173.688,299.126 173.719,302.502 173.757 M85.256 212.788 C 88.480 212.826,93.825 212.826,97.135 212.788 C 100.444 212.750,97.806 212.718,91.273 212.718 C 84.739 212.718,82.032 212.749,85.256 212.788 M302.502 212.788 C 305.878 212.826,311.332 212.826,314.623 212.788 C 317.914 212.750,315.152 212.718,308.485 212.718 C 301.818 212.719,299.126 212.750,302.502 212.788 M175.576 259.333 C 189.009 259.368,210.991 259.368,224.424 259.333 C 237.858 259.299,226.867 259.270,200.000 259.270 C 173.133 259.270,162.142 259.299,175.576 259.333 M85.256 262.969 C 88.480 263.008,93.825 263.008,97.135 262.970 C 100.444 262.931,97.806 262.900,91.273 262.900 C 84.739 262.900,82.032 262.931,85.256 262.969 M302.710 262.969 C 305.935 263.008,311.280 263.008,314.589 262.970 C 317.898 262.931,315.261 262.900,308.727 262.900 C 302.194 262.900,299.486 262.931,302.710 262.969 " stroke="none" fill="#eca3a4" fill-rule="evenodd"></path><path id="path3" d="M151.385 91.273 C 151.385 98.073,151.416 100.889,151.454 97.532 C 151.492 94.175,151.492 88.611,151.454 85.168 C 151.416 81.726,151.385 84.473,151.385 91.273 M262.900 91.273 C 262.900 98.073,262.931 100.889,262.969 97.532 C 263.007 94.175,263.008 88.611,262.970 85.168 C 262.932 81.726,262.901 84.473,262.900 91.273 M137.324 91.394 C 137.324 97.994,137.356 100.694,137.394 97.394 C 137.432 94.094,137.432 88.694,137.394 85.394 C 137.356 82.094,137.324 84.794,137.324 91.394 M248.840 91.515 C 248.840 98.048,248.871 100.686,248.909 97.377 C 248.947 94.068,248.947 88.722,248.909 85.498 C 248.871 82.274,248.839 84.982,248.840 91.515 M151.385 308.970 C 151.385 315.770,151.416 318.586,151.454 315.229 C 151.492 311.872,151.492 306.308,151.454 302.865 C 151.416 299.423,151.385 302.170,151.385 308.970 M262.900 308.970 C 262.900 315.770,262.931 318.586,262.969 315.229 C 263.007 311.872,263.008 306.308,262.970 302.865 C 262.932 299.423,262.901 302.170,262.900 308.970 M137.324 309.091 C 137.324 315.558,137.356 318.203,137.394 314.970 C 137.432 311.736,137.432 306.445,137.394 303.212 C 137.356 299.979,137.324 302.624,137.324 309.091 M248.839 309.091 C 248.839 315.558,248.871 318.203,248.909 314.970 C 248.947 311.736,248.947 306.445,248.909 303.212 C 248.871 299.979,248.839 302.624,248.839 309.091 " stroke="none" fill="#e9898a" fill-rule="evenodd"></path><path id="path4" d="M173.689 91.394 C 173.689 98.394,173.720 101.258,173.757 97.758 C 173.795 94.258,173.795 88.530,173.757 85.030 C 173.720 81.530,173.689 84.394,173.689 91.394 M212.719 91.515 C 212.719 98.448,212.750 101.250,212.788 97.741 C 212.826 94.231,212.826 88.558,212.788 85.135 C 212.750 81.711,212.719 84.582,212.719 91.515 M140.725 199.879 C 140.725 227.079,140.753 238.170,140.788 224.526 C 140.822 210.882,140.822 188.628,140.788 175.072 C 140.753 161.516,140.725 172.679,140.725 199.879 M259.270 200.000 C 259.270 227.133,259.299 238.233,259.333 224.667 C 259.368 211.100,259.368 188.900,259.333 175.333 C 259.299 161.767,259.270 172.867,259.270 200.000 M265.811 266.000 L 264.364 267.515 265.879 266.068 C 266.712 265.272,267.394 264.591,267.394 264.553 C 267.394 264.374,267.155 264.593,265.811 266.000 M180.182 290.591 C 180.415 290.652,180.797 290.652,181.030 290.591 C 181.264 290.530,181.073 290.480,180.606 290.480 C 180.139 290.480,179.948 290.530,180.182 290.591 M219.212 290.591 C 219.445 290.652,219.827 290.652,220.061 290.591 C 220.294 290.530,220.103 290.480,219.636 290.480 C 219.170 290.480,218.979 290.530,219.212 290.591 M173.688 309.091 C 173.688 315.958,173.719 318.767,173.757 315.333 C 173.795 311.900,173.795 306.282,173.757 302.848 C 173.719 299.415,173.688 302.224,173.688 309.091 M212.719 309.091 C 212.719 315.958,212.750 318.767,212.788 315.333 C 212.826 311.900,212.826 306.282,212.788 302.848 C 212.750 299.415,212.719 302.224,212.719 309.091 " stroke="none" fill="#eeacac" fill-rule="evenodd"></path></g></svg>
